<svg xmlns="http://www.w3.org/2000/svg" viewBox="0 0 64 64" width="64" height="64">
  <!-- Sleigh -->
  <ellipse cx="32" cy="48" rx="20" ry="8" fill="#8B4513"/>
  <path d="M12 48 Q8 48 6 52 L4 56 Q3 58 6 58 L58 58 Q61 58 60 56 L58 52 Q56 48 52 48" fill="#8B4513"/>
  <ellipse cx="32" cy="48" rx="16" ry="5" fill="#A0522D"/>
  
  <!-- Santa body -->
  <ellipse cx="32" cy="38" rx="12" ry="10" fill="#c41e3a"/>
  
  <!-- Belt -->
  <rect x="22" y="36" width="20" height="4" fill="#1a1a1a"/>
  <rect x="29" y="35" width="6" height="6" rx="1" fill="#FFD700"/>
  
  <!-- Santa head -->
  <circle cx="32" cy="24" r="10" fill="#FFDAB9"/>
  
  <!-- Beard -->
  <ellipse cx="32" cy="30" rx="8" ry="6" fill="white"/>
  <circle cx="26" cy="28" r="3" fill="white"/>
  <circle cx="38" cy="28" r="3" fill="white"/>
  
  <!-- Eyes -->
  <circle cx="28" cy="22" r="2" fill="#1a1a1a"/>
  <circle cx="36" cy="22" r="2" fill="#1a1a1a"/>
  
  <!-- Nose -->
  <circle cx="32" cy="25" r="2" fill="#FF6B6B"/>
  
  <!-- Hat -->
  <path d="M22 20 Q22 12 32 10 Q42 12 42 20 Z" fill="#c41e3a"/>
  <ellipse cx="32" cy="20" rx="12" ry="3" fill="white"/>
  <circle cx="44" cy="8" r="4" fill="white"/>
  
  <!-- Arms -->
  <ellipse cx="18" cy="36" rx="4" ry="6" fill="#c41e3a"/>
  <ellipse cx="46" cy="36" rx="4" ry="6" fill="#c41e3a"/>
  
  <!-- Mittens -->
  <circle cx="16" cy="40" r="3" fill="white"/>
  <circle cx="48" cy="40" r="3" fill="white"/>
</svg>
