<svg xmlns="http://www.w3.org/2000/svg" width="64" height="64" viewBox="0 0 64 64"><ellipse cx="32" cy="48" fill="#8B4513" rx="20" ry="8"/><path fill="#8B4513" d="M12 48 Q8 48 6 52 L4 56 Q3 58 6 58 L58 58 Q61 58 60 56 L58 52 Q56 48 52 48"/><ellipse cx="32" cy="48" fill="sienna" rx="16" ry="5"/><ellipse cx="32" cy="38" fill="#c41e3a" rx="12" ry="10"/><rect width="20" height="4" x="22" y="36" fill="#1a1a1a"/><rect width="6" height="6" x="29" y="35" fill="gold" rx="1"/><circle cx="32" cy="24" r="10" fill="#FFDAB9"/><ellipse cx="32" cy="30" fill="#fff" rx="8" ry="6"/><circle cx="26" cy="28" r="3" fill="#fff"/><circle cx="38" cy="28" r="3" fill="#fff"/><circle cx="28" cy="22" r="2" fill="#1a1a1a"/><circle cx="36" cy="22" r="2" fill="#1a1a1a"/><circle cx="32" cy="25" r="2" fill="#FF6B6B"/><path fill="#c41e3a" d="M22 20 Q22 12 32 10 Q42 12 42 20 Z"/><ellipse cx="32" cy="20" fill="#fff" rx="12" ry="3"/><circle cx="44" cy="8" r="4" fill="#fff"/><ellipse cx="18" cy="36" fill="#c41e3a" rx="4" ry="6"/><ellipse cx="46" cy="36" fill="#c41e3a" rx="4" ry="6"/><circle cx="16" cy="40" r="3" fill="#fff"/><circle cx="48" cy="40" r="3" fill="#fff"/></svg>