<?xml version="1.0" encoding="UTF-8"?>
<!-- Generator: Adobe Illustrator 18.0.0, SVG Export Plug-In . SVG Version: 6.00 Build 0)  -->
<!DOCTYPE svg PUBLIC "-//W3C//DTD SVG 1.1//EN" "http://www.w3.org/Graphics/SVG/1.1/DTD/svg11.dtd">
<svg version="1.1" id="Layer_1" xmlns="http://www.w3.org/2000/svg" xmlns:xlink="http://www.w3.org/1999/xlink" x="0px" y="0px" viewBox="0 0 428 197.5" enable-background="new 0 0 428 197.5" xml:space="preserve">
<path fill="#B71C8C" d="M126.8,165.8l-0.1-0.5l0-0.2l0-0.1l0-0.1c-0.6-2.2-1.2-4.6-2.1-6.5l0-0.1l0-0.1c-1.3-3.1-4.1-5.9-7.4-7.4  c-1.8-0.8-3.8-1.2-5.9-1.2c-1.6,0-3.4,0.2-5.1,0.8c-4.5,1.3-9,2.1-13.6,2.5c-2.6,0.2-4.9,0.3-7.1,0.3c-8.2,0-15-1.4-20.7-4.4  c-7.2-3.8-13-10.1-16.6-18.2c-3.7-8.2-5.2-18.2-4.7-29.5c0.5-10.4,2.9-19.2,7.3-26.2c7.2-11.5,19.7-17.7,36-17.7  c5,0,10.2,0.6,15.6,1.7c2.4,0.5,4.6,1,6.8,1l2.2-0.2c4-0.6,7.7-3,10-6.2c1.8-2.5,2.4-5.4,3.1-8.7l0-0.1l0.5-2.2c0.4-1.8,0.8-3.4,1-5  c0.1-1.7-1.1-2.6-6.1-4.2l-1.5-0.5c-5.9-2-12-3.6-18.2-4.5c-6.5-1-13-1.5-19.4-1.5c-4.6,0-9.2,0.3-13.6,0.8  c-17,2-31.7,8.4-42.7,18.3C13.2,55.7,5.7,69.4,2.3,85.6c-3.4,16.4-3,33.5,1.3,48.1c4.8,16.6,14.2,29.7,27.4,37.8  c12.2,7.6,27.5,11.5,45.5,11.5c13.6,0,24.3-1.2,33.8-3.9c6.2-1.8,11.4-3.7,15.9-5.9c1.6-0.8,1.7-1.2,1.7-1.4  c0.2-1.6-0.4-3.6-0.9-5.6L126.8,165.8 M426.9,165.5l-0.1-0.4c-0.6-2.3-1.2-4.7-2.1-6.6l0-0.1l0-0.1c-1.3-3.1-4.1-5.9-7.4-7.4  c-1.8-0.8-3.8-1.2-5.9-1.2c-1.6,0-3.4,0.3-5.1,0.8c-4.5,1.3-9,2.1-13.6,2.5c-2.6,0.2-4.9,0.3-7.1,0.3c-8.2,0-15-1.4-20.7-4.4  c-7.2-3.7-13-10-16.6-18.1c-3.7-8.2-5.2-18.2-4.7-29.5c0.5-10.4,2.9-19.2,7.3-26.2c7.2-11.5,19.7-17.7,36-17.7  c4.9,0,10.2,0.6,15.5,1.7c2.4,0.5,4.7,1,6.8,1l2.2-0.2c4-0.6,7.7-3,10-6.2c1.7-2.5,2.4-5.4,3.1-8.7l0-0.1l0.5-2.2  c0.4-1.7,0.8-3.4,1-5c0.1-1.7-1.1-2.6-6.1-4.2l-1.5-0.5c-5.9-2-12-3.6-18.2-4.5c-6.5-1-13-1.5-19.4-1.5c-4.6,0-9.2,0.3-13.6,0.8  c-17,2-31.8,8.4-42.8,18.3c-10.9,9.9-18.4,23.6-21.8,39.8c-3.5,16.4-3,33.5,1.2,48.2c4.8,16.5,14.2,29.6,27.4,37.8  c12.2,7.6,27.5,11.5,45.5,11.5c13.6,0,24.3-1.2,33.8-3.9c6.3-1.8,11.4-3.7,15.9-5.9c1.6-0.8,1.6-1.2,1.7-1.4  c0.2-1.6-0.4-3.6-0.9-5.6L426.9,165.5 M252,4.6c15,5.3,26.2,15.5,31.6,28.9c6.1,15.3,4.9,32.5-3.3,48.3c-9.3,18-24.7,32.9-37.1,43.8  c-7,6.2-14.4,12.2-21.6,18c-5.4,4.4-11,8.9-16.4,13.5l-7.8,6.6h10.3h38.9h16.1c4.4,0,8.4,0.2,11.7,2.1c6,3.4,9.1,9.1,9.1,16.8v14.8  l-0.2,0.2H157.8c-2.3,0-4.6-0.1-6.3-1c-0.5-0.3-2-1.1-2.3-5.4c-0.2-3.5-0.2-7.3-0.1-10.9c0-1.7,0.1-3.4,0.1-5.1v-1.2  c0-2.1,0-4.2,0.2-6.1c0.4-3.1,2-5.8,5-8.6c8.9-8.4,18.3-16.7,27.3-24.8c10.4-9.3,21.2-18.9,31.4-28.7c8.4-8.1,16.5-16.1,23.4-25.4  c4.1-5.6,8.5-12.4,9.5-20.1c1.2-9.5-2.7-18.2-10.4-22.6c-4.8-2.8-10.9-4.2-18.1-4.2c-1.5,0-3,0-4.5,0.2c-5.9,0.5-12.1,1.7-18.7,3.9  c-3.6,1.1-6.8,2.4-9.9,3.7l-1,0.4c-1.3,0.6-2.5,1.2-3.8,1.5c-1.4,0.4-2.9,0.6-4.5,0.6c-6.2,0-12.1-3.6-14.7-8.9l-1.4-2.8  c-2.7-5.1-4.6-9.2-2.4-11.5c1.1-1.2,2.8-2.2,4.7-3.2l1-0.6c2.7-1.5,5.4-2.9,8.2-4.3c5.7-2.7,11.5-5,17.3-6.9  C199.5,1.9,211.7,0,223.2,0C233.6,0,243.3,1.6,252,4.6"/>
</svg>