<svg xmlns="http://www.w3.org/2000/svg" width="1000" height="554" fill="none" viewBox="0 0 1000 554"><g clip-path="url(#clip0_2731_1875)"><path fill="#00766A" d="M377.101 553.202C376.801 552.002 376.701 550.802 376.401 549.802C348.301 465.602 320.201 381.302 292.201 297.102C269.601 229.902 247.201 162.502 224.801 95.2016C224.501 94.2016 224.101 93.0016 223.801 91.6016H285.501C316.101 183.302 346.701 275.102 377.301 367.002H377.901C418.701 244.702 459.401 122.402 500.201 0.101562H500.901C514.501 40.7016 527.901 81.3016 541.501 122.002C555.101 162.902 568.701 203.702 582.401 244.602C596.001 285.402 609.601 326.102 623.201 366.802H623.801L624.101 366.702C624.201 366.602 624.401 366.302 624.401 366.102C654.901 274.702 685.301 183.502 715.801 91.9016H777.501C726.301 245.302 675.201 398.602 624.001 552.002C623.701 552.002 623.601 552.002 623.301 552.102C616.401 531.902 609.701 511.602 603.001 491.302C596.101 470.802 589.401 450.402 582.501 429.802C575.801 409.502 568.901 389.002 562.001 368.702C555.301 348.402 548.401 327.902 541.701 307.602C534.801 287.102 528.001 266.702 521.201 246.202C514.501 225.902 507.601 205.602 500.301 185.302C499.901 186.602 499.401 188.002 499.001 189.202C473.801 265.102 448.401 340.902 423.101 416.802C408.201 461.802 393.101 506.702 378.101 551.702C378.001 552.302 378.001 552.902 377.801 553.302C377.501 553.202 377.201 553.202 377.101 553.202Z"/><path fill="#00766A" d="M999.998 313.102C999.698 315.202 999.398 317.302 998.998 319.402C995.098 338.402 985.898 354.302 971.698 367.302C970.798 368.202 969.798 369.102 968.698 370.002C978.698 400.202 988.698 430.202 998.898 460.502H937.198C929.398 437.102 921.498 413.502 913.598 389.902H838.898V460.502H780.398V214.402C781.698 214.402 782.898 214.302 783.998 214.302C826.898 214.302 869.698 214.202 912.598 214.302C953.698 214.402 988.498 241.602 998.298 281.502C998.998 284.602 999.498 287.802 1000.1 290.902C999.998 298.302 999.998 305.702 999.998 313.102ZM838.698 331.402H842.898H910.998C912.598 331.402 914.298 331.302 915.898 331.102C934.698 329.202 946.698 310.202 940.398 292.402C936.398 280.902 925.498 273.002 913.098 272.802C889.198 272.702 865.298 272.802 841.398 272.802H838.698V331.402Z"/><path fill="#00766A" d="M0 328.101C0.7 324.501 1.3 320.901 2.1 317.301C9.3 275.901 31.1 244.601 67.2 223.501C89.2 210.801 113 205.601 138.3 206.801C162.3 208.001 184.4 215.501 204.5 228.801C205.8 229.701 207 230.601 208.4 231.601C201.7 251.801 195 271.801 188.1 292.401C187.1 291.201 186.2 290.501 185.4 289.601C174.2 277.201 160.5 269.401 144 266.501C107.4 259.901 71.6 282.501 61.7 318.301C50.2 359.701 77.1 401.901 119.6 409.001C140.8 412.401 159.8 407.101 176.8 394.101C178.4 392.901 179.2 391.401 179.2 389.301C179.1 384.201 179.2 379.001 179.2 373.901C179.2 373.001 179.1 372.001 179.1 370.801H131.6V312.901C131.7 312.901 131.7 312.801 131.9 312.601C132 312.501 132 312.501 132.2 312.501C132.6 312.401 133.1 312.401 133.5 312.401H235.9C236.2 312.401 236.5 312.501 237.1 312.701C237.2 313.601 237.4 314.501 237.4 315.401V412.901C237.4 414.401 237.4 415.601 236.4 416.901C225 430.601 212.4 442.701 196.7 451.501C173.4 464.601 148.5 470.301 121.7 468.501C65.8 464.601 17.3 424.301 4 368.101C2.8 363.201 2.2 357.901 1.3 353.001C1 351.401 0.4 349.601 0 347.901V328.101Z"/></g><defs><clipPath id="clip0_2731_1875"><rect width="1000" height="553.3" fill="#fff"/></clipPath></defs></svg>