<svg width="88" height="88" viewBox="0 0 88 88" fill="none" xmlns="http://www.w3.org/2000/svg"><circle cx="44" cy="44" r="44" fill="#fff"/><path d="M44.06 11.5C26.1055 11.5 11.5546 26.0536 11.5546 44.0009C11.5546 61.9518 26.1073 76.5045 44.06 76.5045C62.01 76.5045 76.5609 61.9518 76.5609 44.0009C76.5627 26.0536 62.01 11.5 44.06 11.5ZM65.0373 44.0018C65.0373 55.5827 55.6409 64.9727 44.0609 64.9727C32.4782 64.9727 23.0909 55.5827 23.0909 44.0018C23.0909 32.4209 32.4782 23.0327 44.0609 23.0327C55.6409 23.0327 65.0373 32.4209 65.0373 44.0018Z" fill="#F58025"/><path d="M84 36.1609H4V52.1609H84V36.1609Z" fill="#1C3F94"/></svg>