<?xml version="1.0" encoding="UTF-8"?>
<svg xmlns="http://www.w3.org/2000/svg" width="250px" height="250px" viewBox="0 0 283.46 283.46">
	<title>Paris transit icons - Métro Ligne 16</title>
	<circle fill="#F3A4BA" cx="141.73" cy="141.73" r="141.73"/>
	<path fill="#25303B" d="M79.21 216.67v-118c-9.15 7.23-23.61 14.25-33.61 18.71l-10.2-23C51.13 87.81 70.06 77.81 85 66.54h26.1v150.13zM188.48 220.29c-41 0-55.71-28.5-55.71-68.26 0-52.11 24.45-89.53 72.51-89.53a99.56 99.56 0 0 1 22.54 2.55l-4.68 25.52A57.91 57.91 0 0 0 202.52 87c-21.05 0-36.36 16.8-38.49 47 5.1-4.47 14.88-10.21 31.05-10.21 24.87 0 44.87 16.38 44.87 44.45.05 29.93-19.95 52.05-51.47 52.05zm-3-72.94c-9.57 0-17.22 3.61-20.21 8.29-1.69 2.55-1.69 8.51-1.69 13 0 14.25 8.29 28.07 23.59 28.07 14.89 0 22.55-12.12 22.55-25.09.03-14.07-9.33-24.27-24.21-24.27z"/>
</svg>