<?xml version="1.0" encoding="UTF-8"?>
<svg xmlns="http://www.w3.org/2000/svg" width="250px" height="250px" viewBox="0 0 283.46 283.46">
	<title>Paris transit icons - Métro Ligne 15</title>
	<circle fill="#B90845" cx="141.73" cy="141.73" r="141.73"/>
	<path fill="#FFF" d="M80.94 216.67v-118c-9.14 7.23-23.6 14.25-33.6 18.71l-10.21-23C52.87 87.8 71.8 77.81 86.68 66.54h26.16v150.13zM178.74 220.28c-17.45 0-30.84-3.82-42.32-10.84l12.11-23.39c8.3 5.74 16.81 9.57 28.5 9.57s26.37-7 26.37-24.67c0-10.85-7.23-25.73-34.87-26.16-8.51 0-18.5-.21-23.4-.21l6-78H230v25.05h-54l-2.12 28.5c.85 0 2.76.21 4.25.21 41 1.91 57.63 25.09 57.63 47.63-.03 28.71-22.76 52.31-57.02 52.31z"/>
</svg>