<?xml version="1.0" encoding="UTF-8"?>
<svg xmlns="http://www.w3.org/2000/svg" width="250px" height="250px" viewBox="0 0 283.46 283.46">
	<title>Paris transit icons - Métro Ligne 18</title>
	<circle fill="#00A88F" cx="141.73" cy="141.73" r="141.73"/>
	<path fill="#FFF" d="M82.71 216.67v-118c-9.15 7.23-23.6 14.25-33.6 18.71L38.9 94.4c15.74-6.59 34.66-16.59 49.55-27.86h26.15v150.13zM187.94 220.71c-33.39 0-52.3-20-52.3-42.74 0-20 11.26-32.54 25.72-40-13-8.08-21.05-18.29-21.05-33.81 0-24.88 22.55-42.11 48.27-42.11 26.37 0 48.27 13 48.27 38.71 0 14-7.22 25.94-21.26 34.45 13.82 6.59 25.94 19.35 25.94 39.13 0 28.51-22.75 46.37-53.59 46.37zm-2.54-72.3c-9.79 3.83-19.57 14.46-19.57 26.16 0 12.33 8.08 24 22.54 24 14.25 0 22.12-10 22.12-21.91 0-13.58-12.34-21.87-25.09-28.25zm3.6-64.64c-11.7 0-19.14 7.22-19.14 17.65 0 12.33 12.33 20 21.9 24 7.87-3.61 16.38-13.39 16.38-22.75.01-10.4-6.8-18.9-19.14-18.9z"/>
</svg>